<svg xmlns="http://www.w3.org/2000/svg" width="85" height="85" fill="none"><g clip-path="url(#a)"><path fill="#AD0808" d="M84.983 20.963a2.656 2.656 0 0 0-1.516-2.12L43.623.25a2.657 2.657 0 0 0-2.246 0L1.533 18.843a2.656 2.656 0 0 0-1.517 2.12L0 21.25v45.156c0 1.087.661 2.063 1.67 2.467L41.513 84.81a2.655 2.655 0 0 0 1.974 0L83.33 68.873A2.656 2.656 0 0 0 85 66.406V21.25c0-.014-.014-.268-.017-.287ZM42.5 5.588l33.16 15.475-12.768 5.107-33.785-14.332L42.5 5.588ZM22.63 14.86l33.26 14.11-13.39 5.356L9.34 21.063l13.29-6.202ZM5.313 25.174l34.53 13.812v39.435L5.314 64.608V25.174ZM45.156 78.42V38.986l34.532-13.812v39.434L45.156 78.421Z"/></g><defs><clipPath id="a"><path fill="#fff" d="M0 0h85v85H0z"/></clipPath></defs></svg>