<svg xmlns="http://www.w3.org/2000/svg" width="20" height="12" fill="none"><path fill="#002C6A" d="M10 .04C6.179.04 2.714 2.13.156 5.524a.792.792 0 0 0 0 .945C2.714 9.87 6.18 11.96 10 11.96c3.821 0 7.287-2.09 9.843-5.485a.792.792 0 0 0 0-.946C17.287 2.13 13.821.04 10 .04Zm.274 10.158a4.21 4.21 0 0 1-4.472-4.472 4.216 4.216 0 0 1 3.924-3.924 4.209 4.209 0 0 1 4.472 4.472 4.23 4.23 0 0 1-3.924 3.924Zm-.127-1.94a2.261 2.261 0 0 1-2.405-2.405 2.275 2.275 0 0 1 2.115-2.115 2.261 2.261 0 0 1 2.405 2.405 2.275 2.275 0 0 1-2.115 2.115Z"/></svg>