<svg xmlns="http://www.w3.org/2000/svg" width="105" height="105" fill="none"><g fill="#2C830E" clip-path="url(#a)"><path d="M52.5 0C25.3 0 3.282 22.013 3.282 49.218a49.082 49.082 0 0 0 12.1 32.319v20.385c0 2.747 3.326 4.1 5.25 2.175l10.522-10.522c32.356 15.568 70.564-7.825 70.564-44.358C101.718 22.018 79.705 0 52.5 0ZM32.025 87.114a3.077 3.077 0 0 0-3.64.53l-6.851 6.851V80.363c0-.769-.288-1.51-.807-2.077A42.949 42.949 0 0 1 9.435 49.217c0-23.746 19.319-43.065 43.065-43.065 23.747 0 43.066 19.32 43.066 43.066 0 32.675-35.088 53.303-63.54 37.896Z"/><path d="M52.5 21.717c-10.183 0-18.467 8.285-18.467 18.467a3.076 3.076 0 0 0 6.152 0c0-6.79 5.525-12.314 12.315-12.314 6.79 0 12.315 5.524 12.315 12.314S59.29 52.5 52.5 52.5a3.076 3.076 0 0 0-3.076 3.076v9.218a3.076 3.076 0 0 0 6.152 0v-6.398c8.724-1.469 15.39-9.076 15.39-18.21 0-10.183-8.284-18.468-18.466-18.468ZM52.5 80.163a3.066 3.066 0 1 0 0-6.131 3.066 3.066 0 0 0 0 6.132Z"/></g><defs><clipPath id="a"><path fill="#fff" d="M0 0h105v105H0z"/></clipPath></defs></svg>