<svg xmlns="http://www.w3.org/2000/svg" width="36" height="35" fill="none"><g clip-path="url(#a)"><g clip-path="url(#b)"><path fill="url(#c)" d="M2.775 2.381C.025 5.238.588 8.273.588 17.492c0 7.657-1.336 15.332 5.654 17.139 2.182.561 21.52.561 23.7-.003 2.91-.751 5.278-3.112 5.601-7.229.046-.575.046-19.228-.001-19.814C35.198 3.199 32.499.672 28.943.16c-.815-.118-.978-.153-5.16-.16C8.953.007 5.702-.654 2.776 2.38Z"/><path fill="#fff" d="M18.08 4.577c-5.293 0-10.32-.47-12.24 4.459-.794 2.035-.679 4.68-.679 8.465 0 3.322-.106 6.444.678 8.464 1.916 4.932 6.984 4.46 12.238 4.46 5.07 0 10.296.528 12.24-4.46.794-2.056.678-4.66.678-8.464 0-5.049.278-8.308-2.17-10.755-2.478-2.48-5.83-2.169-10.75-2.169h.005Zm-1.157 2.33C27.965 6.888 29.37 5.66 28.595 22.718c-.276 6.033-4.868 5.371-10.513 5.371-10.293 0-10.59-.294-10.59-10.595 0-10.42.817-10.583 9.43-10.592v.003Zm8.053 2.145a1.55 1.55 0 1 0 .001 3.1 1.55 1.55 0 0 0 0-3.1Zm-6.896 1.812a6.636 6.636 0 0 0-6.633 6.637 6.633 6.633 0 1 0 13.266 0 6.634 6.634 0 0 0-6.633-6.637Zm0 2.33c5.694 0 5.7 8.615 0 8.615-5.691 0-5.7-8.616 0-8.616Z"/></g></g><defs><clipPath id="a"><rect width="34.99" height="35" x=".588" fill="#fff" rx="17.495"/></clipPath><clipPath id="b"><path fill="#fff" d="M.588 0h34.99v35H.588z"/></clipPath><linearGradient id="c" x1="2.842" x2="35.369" y1="32.764" y2="4.62" gradientUnits="userSpaceOnUse"><stop stop-color="#FD5"/><stop offset=".5" stop-color="#FF543E"/><stop offset="1" stop-color="#C837AB"/></linearGradient></defs></svg>