<svg xmlns="http://www.w3.org/2000/svg" width="80" height="80" fill="none"><g clip-path="url(#a)"><path fill="#002C6A" d="M76.55 54.387c1.639-2.09 2.425-4.333 2.325-6.641-.1-2.543-1.238-4.534-2.175-5.755 1.087-2.71 1.506-6.976-2.124-10.289-2.66-2.426-7.177-3.513-13.434-3.212-4.4.2-8.08 1.02-8.231 1.054h-.017a66.83 66.83 0 0 0-2.626.535c-.067-1.07.117-3.73 2.09-9.72 2.343-7.126 2.21-12.58-.434-16.227C49.147.302 44.714 0 43.409 0a4.201 4.201 0 0 0-3.23 1.472c-1.856 2.158-1.639 6.14-1.404 7.98-2.209 5.922-8.399 20.443-13.635 24.475-.1.067-.184.15-.268.234-1.539 1.623-2.576 3.38-3.279 4.919a6.903 6.903 0 0 0-3.312-.837H8.076c-3.848 0-6.96 3.129-6.96 6.96v27.185c0 3.848 3.13 6.96 6.96 6.96h10.205a6.945 6.945 0 0 0 4.015-1.272l3.931.469c.603.083 11.31 1.438 22.3 1.22 1.992.151 3.865.235 5.605.235 2.995 0 5.605-.234 7.78-.703 5.119-1.087 8.615-3.262 10.388-6.457 1.355-2.443 1.355-4.868 1.138-6.408 3.329-3.01 3.915-6.34 3.797-8.682a11.305 11.305 0 0 0-.685-3.363ZM8.076 74.831a2.445 2.445 0 0 1-2.442-2.443V45.186a2.445 2.445 0 0 1 2.442-2.442h10.205a2.445 2.445 0 0 1 2.443 2.442v27.185a2.445 2.445 0 0 1-2.443 2.443H8.076v.017Zm64.19-22.401a2.248 2.248 0 0 0-.3 2.727c0 .017.686 1.188.77 2.794.116 2.191-.938 4.132-3.146 5.788a2.28 2.28 0 0 0-.77 2.576c0 .017.72 2.225-.451 4.317-1.121 2.007-3.614 3.446-7.395 4.249-3.027.652-7.143.77-12.195.368h-.235c-10.756.234-21.63-1.171-21.748-1.188h-.016l-1.69-.2c.1-.47.15-.971.15-1.473V45.186c0-.72-.117-1.422-.317-2.074.3-1.121 1.137-3.614 3.111-5.739 7.512-5.955 14.856-26.047 15.174-26.917.134-.351.167-.736.1-1.121-.284-1.874-.184-4.166.218-4.852.886.017 3.279.268 4.717 2.259 1.707 2.359 1.64 6.575-.2 12.162-2.81 8.515-3.045 12.999-.82 14.973 1.104.987 2.576 1.037 3.647.652 1.02-.234 1.99-.435 2.91-.585.068-.017.151-.034.218-.05 5.136-1.121 14.337-1.807 17.533 1.104 2.71 2.476.786 5.755.569 6.106-.62.937-.435 2.158.401 2.911.017.017 1.773 1.673 1.857 3.898.067 1.489-.636 3.011-2.091 4.517Z"/></g><defs><clipPath id="a"><path fill="#fff" d="M0 0h80v80H0z"/></clipPath></defs></svg>