<svg xmlns="http://www.w3.org/2000/svg" width="44" height="44" fill="none"><g clip-path="url(#a)"><path fill="#039BE5" d="M22 44c12.15 0 22-9.85 22-22S34.15 0 22 0 0 9.85 0 22s9.85 22 22 22Z"/><path fill="#fff" d="m10.067 21.524 21.212-8.179c.984-.356 1.844.24 1.525 1.729l.002-.002-3.612 17.015c-.268 1.207-.985 1.5-1.987.932l-5.5-4.054-2.653 2.556c-.293.293-.541.54-1.11.54l.391-5.596 10.194-9.21c.443-.39-.1-.61-.684-.221l-12.597 7.93-5.43-1.693c-1.18-.374-1.205-1.179.249-1.747Z"/></g><defs><clipPath id="a"><path fill="#fff" d="M0 0h44v44H0z"/></clipPath></defs></svg>