<svg xmlns="http://www.w3.org/2000/svg" width="44" height="44" fill="none"><g clip-path="url(#a)"><path fill="#6F3FAA" d="M22 44c12.15 0 22-9.85 22-22S34.15 0 22 0 0 9.85 0 22s9.85 22 22 22Z"/><path fill="#fff" d="m33.638 15.462-.007-.03c-.588-2.376-3.238-4.925-5.672-5.456l-.027-.006a31.519 31.519 0 0 0-11.864 0l-.028.006c-2.433.53-5.083 3.08-5.672 5.457l-.006.029a23.221 23.221 0 0 0 0 10.003l.006.029c.564 2.275 3.017 4.708 5.36 5.377v2.653c0 .96 1.17 1.431 1.835.738l2.688-2.793a31.626 31.626 0 0 0 7.681-.512l.027-.006c2.434-.53 5.084-3.08 5.672-5.457l.007-.029a23.223 23.223 0 0 0 0-10.003Zm-2.127 9.522c-.392 1.55-2.404 3.478-4.003 3.834a29.377 29.377 0 0 1-6.31.51.149.149 0 0 0-.112.045l-1.962 2.014-2.087 2.142a.244.244 0 0 1-.421-.168v-4.395a.152.152 0 0 0-.123-.148h-.002c-1.598-.357-3.61-2.284-4.003-3.834-.654-3-.654-6.041 0-9.04.393-1.551 2.405-3.479 4.003-3.835a29.356 29.356 0 0 1 11.017 0c1.6.356 3.61 2.284 4.003 3.834.655 3 .655 6.041 0 9.04Z"/><path fill="#fff" d="M25.478 27.012c-.246-.074-.48-.124-.698-.215-2.254-.935-4.329-2.141-5.972-3.99-.934-1.052-1.666-2.24-2.284-3.496-.293-.596-.54-1.215-.792-1.83-.23-.562.109-1.141.465-1.564.334-.397.764-.7 1.23-.924.363-.175.722-.074.988.234.573.666 1.1 1.366 1.527 2.138.263.475.19 1.056-.285 1.38-.116.078-.22.17-.329.259a1.079 1.079 0 0 0-.248.261.717.717 0 0 0-.048.63c.587 1.612 1.576 2.866 3.199 3.541.26.108.52.234.82.2.5-.06.663-.61 1.014-.896.343-.28.782-.284 1.151-.05.37.233.729.485 1.085.739.35.249.698.492 1.02.777.31.273.417.631.242 1.002-.32.679-.784 1.244-1.456 1.604-.19.102-.415.135-.63.2.215-.065-.245-.074 0 0ZM22.006 14.216c2.948.083 5.37 2.04 5.89 4.954.088.497.12 1.005.158 1.509.017.212-.103.414-.332.416-.236.003-.343-.195-.358-.406-.03-.42-.051-.842-.11-1.258-.304-2.196-2.056-4.013-4.242-4.403-.33-.059-.666-.074-.999-.11-.21-.021-.487-.034-.533-.296-.04-.22.146-.394.355-.405.057-.004.114-.001.171-.001 2.949.083-.057 0 0 0Z"/><path fill="#fff" d="M26.487 20.025c-.005.037-.007.123-.03.205-.077.296-.526.333-.63.034a.892.892 0 0 1-.035-.285c0-.624-.137-1.248-.452-1.791a3.335 3.335 0 0 0-1.398-1.313 4.02 4.02 0 0 0-1.114-.341c-.168-.028-.338-.045-.507-.069-.205-.028-.314-.159-.304-.36.009-.189.147-.325.353-.313.676.038 1.33.184 1.932.503 1.223.648 1.922 1.67 2.126 3.036.009.062.024.123.028.185.012.153.02.307.03.509-.004.037-.01-.202 0 0Z"/><path fill="#fff" d="M24.653 19.953c-.247.005-.379-.132-.404-.358-.018-.157-.032-.317-.07-.47a1.325 1.325 0 0 0-.488-.768 1.283 1.283 0 0 0-.399-.192c-.18-.053-.369-.038-.55-.082-.195-.048-.303-.207-.273-.391a.354.354 0 0 1 .374-.285c1.143.083 1.96.674 2.077 2.02.008.094.018.195-.003.286-.037.155-.152.233-.264.24.112-.007-.247.005 0 0Z"/><path fill="#fff" d="m33.638 15.463-.007-.03c-.33-1.331-1.307-2.718-2.532-3.773l-1.655 1.467c.985.784 1.828 1.87 2.067 2.817.655 3 .655 6.04 0 9.04-.392 1.551-2.404 3.478-4.003 3.834a29.37 29.37 0 0 1-6.31.51.149.149 0 0 0-.112.046l-1.962 2.014-2.087 2.142a.244.244 0 0 1-.421-.169v-4.394a.152.152 0 0 0-.123-.148h-.001c-.91-.203-1.95-.913-2.753-1.773l-1.635 1.45c1.021 1.11 2.339 2.009 3.624 2.376v2.653c0 .96 1.17 1.431 1.835.738l2.688-2.793a31.626 31.626 0 0 0 7.681-.512l.027-.006c2.434-.53 5.084-3.08 5.672-5.457l.007-.029a23.222 23.222 0 0 0 0-10.003Z"/><path fill="#fff" d="M25.478 27.013c-.246-.075.213-.066 0 0Z"/><path fill="#fff" d="M27.321 24.205c-.322-.284-.67-.528-1.02-.777a23.88 23.88 0 0 0-1.085-.739c-.37-.234-.808-.23-1.151.05-.351.287-.513.837-1.014.896-.3.034-.56-.091-.82-.2a5.303 5.303 0 0 1-2.329-1.852l-1.217 1.079c.042.047.081.097.123.144 1.643 1.85 3.718 3.056 5.972 3.991.218.09.452.14.698.215-.246-.075.213-.066 0 0 .213-.066.44-.099.63-.2.67-.361 1.136-.926 1.456-1.605.174-.37.067-.729-.243-1.002ZM22.006 14.217h.008c.163.006 2.824.08-.008 0ZM26.235 15.97l-.518.46a5.207 5.207 0 0 1 1.538 3.002c.058.416.079.837.11 1.257.014.212.12.41.357.407.229-.003.35-.204.332-.416-.039-.505-.07-1.012-.159-1.509a5.92 5.92 0 0 0-1.66-3.2ZM26.428 19.33c-.149-.994-.562-1.806-1.247-2.425l-.518.459c.268.237.5.516.677.824.316.543.451 1.167.452 1.791a.89.89 0 0 0 .036.285c.103.3.552.262.63-.034.022-.082.024-.168.029-.205-.012-.202-.005.037 0 0l-.03-.509c-.005-.062-.02-.123-.03-.185Z"/><path fill="#fff" d="M26.487 20.025c-.012-.203-.005.036 0 0ZM24.653 19.953c.004 0 .007-.002.011-.003l-.043.001.032.002Z"/><path fill="#fff" d="m24.653 19.953-.031-.002a.448.448 0 0 0 .031.002ZM24.664 19.95c-.004 0-.007.003-.01.003.028-.002.025-.003.01-.003Z"/><path fill="#fff" d="m24.132 17.834-.526.467c.029.017.057.036.085.056.254.185.415.465.489.767.037.154.051.313.069.471.024.216.147.349.373.357l.043-.001a.292.292 0 0 0 .252-.239c.02-.09.011-.19.003-.286-.066-.752-.35-1.268-.788-1.592Z"/></g><defs><clipPath id="a"><path fill="#fff" d="M0 0h44v44H0z"/></clipPath></defs></svg>