<svg width="36" height="35" viewBox="0 0 36 35" fill="none" xmlns="http://www.w3.org/2000/svg">
<g clip-path="url(#clip0_4800_1338)">
<g clip-path="url(#clip1_4800_1338)">
<path d="M18.0656 35C27.728 35 35.5609 27.165 35.5609 17.5C35.5609 7.83502 27.728 0 18.0656 0C8.40321 0 0.570312 7.83502 0.570312 17.5C0.570312 27.165 8.40321 35 18.0656 35Z" fill="#4D76A1"/>
<path  d="M17.4048 25.1753H18.7779C18.7779 25.1753 19.1927 25.1298 19.4045 24.9014C19.5994 24.6918 19.5932 24.2981 19.5932 24.2981C19.5932 24.2981 19.5664 22.4551 20.4215 22.1837C21.2645 21.9163 22.347 23.9649 23.4944 24.7526C24.362 25.3487 25.0213 25.218 25.0213 25.218L28.0891 25.1753C28.0891 25.1753 29.694 25.0764 28.9331 23.8142C28.8707 23.711 28.4899 22.8806 26.652 21.1742C24.7284 19.3882 24.986 19.6771 27.3032 16.5878C28.7144 14.7064 29.2786 13.5578 29.1024 13.0659C28.9343 12.5973 27.8964 12.7212 27.8964 12.7212L24.4421 12.7427C24.4421 12.7427 24.1861 12.7077 23.9962 12.8213C23.8106 12.9327 23.6911 13.1922 23.6911 13.1922C23.6911 13.1922 23.1444 14.6481 22.4153 15.8862C20.8771 18.4989 20.2621 18.6367 20.0108 18.4745C19.426 18.0964 19.572 16.9556 19.572 16.1452C19.572 13.6133 19.9559 12.5577 18.8244 12.2844C18.4489 12.1936 18.1726 12.1337 17.2124 12.1241C15.9798 12.1113 14.9366 12.1278 14.346 12.4173C13.953 12.6098 13.6499 13.0387 13.8345 13.0634C14.0628 13.0939 14.5799 13.2028 14.854 13.5762C15.208 14.0579 15.1955 15.1397 15.1955 15.1397C15.1955 15.1397 15.3988 18.1201 14.7205 18.4904C14.2549 18.7444 13.6162 18.2259 12.2449 15.8557C11.5423 14.6415 11.0118 13.2995 11.0118 13.2995C11.0118 13.2995 10.9095 13.0487 10.727 12.9146C10.5056 12.752 10.1962 12.7003 10.1962 12.7003L6.91379 12.7218C6.91379 12.7218 6.42104 12.7355 6.24016 12.9498C6.07923 13.1404 6.22737 13.5347 6.22737 13.5347C6.22737 13.5347 8.79718 19.5486 11.7069 22.5792C14.375 25.3578 17.4048 25.1753 17.4048 25.1753Z" fill="white"/>
</g>
</g>
<defs>
<clipPath id="clip0_4800_1338">
<rect width="34.9905" height="35" fill="white" transform="translate(0.570312)"/>
</clipPath>
<clipPath id="clip1_4800_1338">
<rect width="34.9905" height="35" fill="white" transform="translate(0.570312)"/>
</clipPath>
</defs>
</svg>
