<svg width="36" height="35" viewBox="0 0 36 35" fill="none" xmlns="http://www.w3.org/2000/svg">
<g clip-path="url(#clip0_4800_1344)">
<g clip-path="url(#clip1_4800_1344)">
<path d="M18.0523 0H18.0435C8.39705 0 0.552612 7.84875 0.552612 17.5C0.552612 21.3281 1.78603 24.8762 3.88327 27.7572L1.70293 34.2584L8.42767 32.1081C11.1941 33.9412 14.4942 35 18.0523 35C27.6987 35 35.5432 27.1491 35.5432 17.5C35.5432 7.85094 27.6987 0 18.0523 0Z" fill="#4CAF50"/>
<path d="M28.2324 24.7123C27.8103 25.9045 26.1351 26.8932 24.7989 27.182C23.8848 27.3766 22.6907 27.532 18.6712 25.8651C13.5298 23.7345 10.2188 18.5085 9.96074 18.1695C9.71362 17.8304 7.88318 15.4023 7.88318 12.891C7.88318 10.3798 9.15815 9.15696 9.67207 8.63196C10.0941 8.20103 10.7918 8.00415 11.461 8.00415C11.6775 8.00415 11.8721 8.01509 12.0471 8.02384C12.561 8.04571 12.819 8.07634 13.158 8.8879C13.5801 9.90509 14.6079 12.4163 14.7304 12.6745C14.855 12.9326 14.9797 13.2826 14.8047 13.6217C14.6407 13.9717 14.4964 14.127 14.2383 14.4245C13.9803 14.722 13.7353 14.9495 13.4773 15.2688C13.2411 15.5466 12.9743 15.8442 13.2717 16.3582C13.5691 16.8613 14.597 18.5391 16.1103 19.8866C18.0632 21.6257 19.6466 22.1813 20.213 22.4176C20.635 22.5926 21.138 22.551 21.4464 22.2229C21.8378 21.8007 22.3211 21.1007 22.8132 20.4116C23.1631 19.9173 23.6049 19.856 24.0685 20.031C24.5409 20.1951 27.0405 21.431 27.5544 21.687C28.0683 21.9451 28.4073 22.0676 28.532 22.2841C28.6544 22.5007 28.6544 23.5179 28.2324 24.7123Z" fill="#FAFAFA"/>
</g>
</g>
<defs>
<clipPath id="clip0_4800_1344">
<rect width="34.9905" height="35" fill="white" transform="translate(0.552612)"/>
</clipPath>
<clipPath id="clip1_4800_1344">
<rect width="34.9905" height="35" fill="white" transform="translate(0.552612)"/>
</clipPath>
</defs>
</svg>
